<?xml version="1.0" encoding="UTF-8"?>
<svg xmlns="http://www.w3.org/2000/svg" viewBox="0 0 648.04 885.18">
  <defs>
    <style>
      .cls-1, .cls-2 {
        fill: #fff;
      }

      .cls-3 {
        fill: #fffdd9;
      }

      .cls-4 {
        stroke-width: 4px;
      }

      .cls-4, .cls-5, .cls-2, .cls-6 {
        stroke-miterlimit: 10;
      }

      .cls-4, .cls-6 {
        fill: #c69c6d;
        stroke: #a67c52;
      }

      .cls-7 {
        fill: #f7a9b2;
      }

      .cls-8 {
        fill: #918176;
      }

      .cls-9 {
        fill: #e27d89;
      }

      .cls-5 {
        fill: none;
      }

      .cls-5, .cls-2 {
        stroke: #e5e5e5;
      }

      .cls-5, .cls-2, .cls-6 {
        stroke-width: 8px;
      }

      .cls-10 {
        fill: #fcf8c3;
      }

      .cls-11 {
        fill: #a09085;
      }

      .cls-12 {
        fill: #a8ce78;
      }
    </style>
  </defs>
  <g id="_レイヤー_4" data-name="レイヤー 4">
    <path class="cls-4" d="m426.54,368.68c0,16.08-4.35,29.71-16,39-13.37,10.66-49.87,2.71-58-12-1.43-2.58-1.98-3.92.74-9.67,4.76-10.07,9.26-13.33,9.26-13.33,0,0-6.96,7.08-10,14-3.47,7.92-3.17,17.59-6,19-8,4-22,0-28-8-7.4-9.87-10-15.71-10-29,0-32.58,26.42-59,59-59s59,26.42,59,59Z"/>
  </g>
  <g id="_レイヤー_3" data-name="レイヤー 3">
    <path class="cls-10" d="m357.04,757.18c-6-4-16.63-9.38-34-13-24-5-40-2-54,17s-6,51,4,73,32.73,36.15,56,41c24,5,34-4,43-9,5,2,25-12,31-17.91s-1-19.09-4-26.09c-.61-1.43-8.97-26.75-21-42-9.16-11.61-15-19-21-23Z"/>
    <path class="cls-3" d="m261.64,792.02c.37,6.23,1.49,12.61,3.1,18.85,2.13,8.29,5.11,16.31,8.3,23.31,10,22,32.73,36.15,56,41,24,5,34-4,43-9,5,2,25-12,31-17.91s-1-19.09-4-26.09c0,0,1,5,1,10s-2,5-6,7-14,8-22,9-5,5-19,8-30,4-39-1-29-17-34-24c-2-2.8-6-7-10-19s-9.08-31.66-8.4-20.16Z"/>
    <path class="cls-3" d="m197.54,778.68c-5.82-4.37-7.81-5.55-10-22-2.53-19,2-64,15-84s22.9-38.35,56-48c24-7,67.18,9.29,81,25,22,25,29.95,53.88,28,80s-8,47-10,51,0,20-3,29-9,17-19,22-8.42,6.94-18.21,3.47-21.79-12.47-28.79-25.47c-13-5-48-28-54-33-1.28,2.13-7.03,7.53-14,8-9.41.64-20.7-4.28-23-6Z"/>
    <path class="cls-3" d="m210.04,331.18c14-8,70.26,13.11,88,32s35,51,39,63-6,58-62,80c-43.86,17.23-80,0-95-21s-26-50-18-86,38.65-62.66,48-68Z"/>
    <path class="cls-3" d="m205.04,599.18c38,48,114.16,101.96,157,119,42.96,17.09,83.5,7.5,125.5-26.5,21.89-17.72,105.48-138.41-4.5-241.5-56.72-53.17-109.81-68.26-154.74-64.89-47.13,3.53-85.28,27.37-109.26,48.89-39,35-52,117-14,165Z"/>
    <path class="cls-3" d="m619.04,684.18c9.2,35.95-34,50-57,56s-49-2-73-13-37-22-50-45-11-76,12-98c11.2-10.71,55-48,84-29,47.48,31.11,80.88,116.82,84,129Z"/>
  </g>
  <g id="_レイヤー_2" data-name="レイヤー 2">
    <g>
      <path class="cls-9" d="m317.12,591.52c7.67,5.42,13.7,12.14,17.87,19.34.76-10.54-2.46-23.23-13.12-33.15-12.53-11.67-28.99-20.52-37.83-20.52-14,0-17.89,5.57-21.2,11.66-1.63,3-3.54,10.41-3.77,18.99,14.54-11.16,38.47-10.16,58.06,3.69Z"/>
      <path class="cls-7" d="m264.34,612.14c10.76,16.21,19.06,22.49,36.7,26.04,18.08,3.63,30.8-10.67,33.21-22,.36-1.69.61-3.48.75-5.33-4.17-7.2-10.19-13.91-17.87-19.34-19.59-13.85-43.52-14.84-58.06-3.69-.21,7.95.56,17.2,5.27,24.31Z"/>
    </g>
    <ellipse class="cls-8" cx="413.07" cy="603.86" rx="54.29" ry="39.22" transform="translate(-309.15 486.96) rotate(-46.43)"/>
    <path class="cls-11" d="m375.65,643.2c11.82,11.24,31.45,10.89,49.26.75.47-8.54-1.91-17.75-7.35-25.97-11.88-17.96-33.83-24.36-49.03-14.32-4.76,15.25-2.64,30.26,7.13,39.54Z"/>
    <path class="cls-1" d="m425.97,612.56c-11.29,11.87-26.33,15.9-33.59,9-7.26-6.91-3.99-22.13,7.31-34s26.85-16.41,33.59-9c8.76,9.62,3.99,22.13-7.31,34Z"/>
    <ellipse class="cls-8" cx="277.46" cy="490.01" rx="54.29" ry="39.22" transform="translate(-276.15 387.02) rotate(-49.94)"/>
    <path class="cls-11" d="m286.56,501.97c-11.89-17.96-33.84-24.37-49.04-14.31-1.49.99-2.86,2.1-4.11,3.32-4.42,16.07-1.54,31.63,9.12,40.59,13.02,10.95,33.75,8.79,51.39-3.76.43-8.5-1.95-17.66-7.36-25.84Z"/>
    <path class="cls-1" d="m293.99,498.9c-10.53,14.8-27.27,20.94-34.96,12.28-6.65-7.49-3.36-23.09,7.19-35.63s25.31-17.48,32.98-11.04c7.67,6.45,4.29,21.03-5.21,34.38Z"/>
    <path class="cls-3" d="m202.54,672.68c-24.16-26.58-16.92-75.02,11-82,12-3,22.67,3.18,26,9,12,21,9,45,4,57-4.71,11.31-31,27-41,16Z"/>
    <path class="cls-12" d="m354.04,712.18c7,4,17,10,17,10,0,0,6,12.51,7,16,2.45,8.58,2.47,20.43-1,25-2.19,2.88-6.64.51-10,0-15.1-2.31-38.66-24.27-43-29-11-12-15-23-16-31-16.85-.82-38.68,4.54-58,3-5.73-.46-14.42-1.42-19-3-1.25-.43-4.08-1.54-6-7-2.21-6.3-2-15-2-22,0-4.27,3.13-15.93,6.05-25.89,2.56-8.71,4.95-16.11,4.95-16.11,0,0,34,30,52,41s61,35,68,39Z"/>
    <path class="cls-6" d="m233.54,566.68c-.15-.89-4.77,6.64-10.5,10.5-6.22,4.19-13.58,4.87-13.5,7.5,1,34-2,73,18,89s34,10,39-14-7.86-48.53-12-56-18-19-21-37"/>
    <path class="cls-2" d="m211.54,347.68c-1.98-19.55-10-43-18-60s-55-66-68-74-88-45-101-53S1.54,143.68,4.54,128.68s17-20,27-20,23,4,30,7c-6-14-11-28,3-41s30.29-5,33.64,0c-2.29-17,8.36-32,21.36-37s26.66,6.83,29.33,10.41c.34-23.83,8.67-30.41,23.67-35.41s31,12,34,17c8-14,22.1-27.11,39.05-25.56s33.58,27.87,34.26,34.71c7.37-11.31,32.69-25.16,54.69-18.16,22,7,20,17,17,24,15-4,33,3,45,13s8,22,7,28c15-4,30,2,43,16s4,24.46,0,29.73c19-6.46,41,4.27,44,21.27s-20,30-42,40-76,18-95,26-76.39,50.45-86,74c-20,49-25.69,112.02-27,133-3,48-9.42,122.91-7,141,1.58,11.85-24.32,27.47-25.5,16.5-3.67-34.14.36-91.07,1.88-132.49,1.62-44.01,4.32-76.36,1.62-103.01Z"/>
    <path class="cls-3" d="m277.04,638.18c21.5-2.5,27.92,23.61,30.5,35.5,5,23,4.5,33.5-7.5,44.5-7.84,7.18-17.5,4.5-30-5s-22.28-21.25-21-43c1-17,6.5-29.5,28-32Z"/>
    <path class="cls-4" d="m353.28,386.02c4.76-10.07,9.26-13.33,9.26-13.33,0,0-6.96,7.08-10,14-3.47,7.92-3.17,17.59-6,19-8,4-22,0-28-8-7.4-9.87-10-15.71-10-29"/>
    <path class="cls-4" d="m625.04,537.18c-3.01,37.34-21.53,52.78-47.5,55.5-23.93,2.5-50-13-51-32,0-2,1-3,3-4s13.04-3.52,22-8c4-2,13-9,13-9,0,0-9,7-13,9-6,3-12,5-15,5-4.09.09-5.81.29-9.41-2.85s-6.38-9.51-7.59-13.15c-4-12-5-20-2-29,6.29-18.88,27.6-33,49-33,35,0,61.31,26.61,58.5,61.5Z"/>
    <path class="cls-5" d="m190.72,144.72c6.32-20.64,15.52-23.59,32.03-23.28,16.51.31,28.6,15.1,33.09,23.4,13.18-18.2,25.61-20,43.91-18.55,18.3,1.45,28.39,16.12,29.94,23.23,12.12-17.27,32.14-16.95,45.26-10.63,13.13,6.32,17.23,20.6,18.79,27.72"/>
  </g>
</svg>